{"title":"WWE FRIDAY NIGHT SMACKDOWN 04 11 2011 HDTV BZINGAZ","uid":6798730,"size":546926520,"categoryP":"video","categoryS":"tv_shows","magnet":"?xt=urn:btih:9fa4f9aff35e3097b9c6edd9786ea7392d615484&amp;dn=WWE+FRIDAY+NIGHT+SMACKDOWN+04+11+2011+HDTV+BZINGAZ&amp;tr=udp%3A%2F%2Ftracker.openbittorrent.com%3A80&amp;tr=udp%3A%2F%2Fopen.demonii.com%3A1337&amp;tr=udp%3A%2F%2Ftracker.coppersurfer.tk%3A6969&amp;tr=udp%3A%2F%2Fexodus.desync.com%3A6969","seeders":0,"leechers":0,"uploader":"bzingaz","files":-1,"time":1320577265,"description":"WWE FRIDAY NIGHT SMACKDOWN 04_11_2011 HDTV  IN FLV FORMAT..Download**Enjoy**Seed\n\n\nSCREENSHOTS:\n\n       &lt;a href=&quot;\nhttp://bayimg.com/caKdGAADN&quot; rel=&quot;nofollow&quot; target=&quot;_NEW&quot;&gt;\nhttp://bayimg.com/caKdGAADN&lt;/a&gt;\n       &lt;a href=&quot;\nhttp://bayimg.com/cAKdhAAdN&quot; rel=&quot;nofollow&quot; target=&quot;_NEW&quot;&gt;\nhttp://bayimg.com/cAKdhAAdN&lt;/a&gt;\n       &lt;a href=&quot;\nhttp://bayimg.com/CaKDiaadN&quot; rel=&quot;nofollow&quot; target=&quot;_NEW&quot;&gt;\nhttp://bayimg.com/CaKDiaadN&lt;/a&gt;\n    &lt;a href=&quot;\nhttp://bayimg.com/cAkDjAadn&quot; rel=&quot;nofollow&quot; target=&quot;_NEW&quot;&gt;\nhttp://bayimg.com/cAkDjAadn&lt;/a&gt;\n\n\nDETAILS ARE:\n\n\nVideo\nFormat                           : AVC\nFormat/Info                      : Advanced Video Codec\nFormat profile                   : &lt;a class=&quot;__cf_email__&quot; href=&quot;/cdn-cgi/l/email-protection&quot; data-cfemail=&quot;8cc1ede5e2ccc0bfa2bc&quot;&gt;[email&amp;#160;protected]&lt;/a&gt;&lt;script cf-hash='f9e31' type=&quot;text/javascript&quot;&gt;\n/* &lt;![CDATA[ */!function(){try{var t=&quot;currentScript&quot;in document?document.currentScript:function(){for(var t=document.getElementsByTagName(&quot;script&quot;),e=t.length;e--;)if(t[e].getAttribute(&quot;cf-hash&quot;))return t[e]}();if(t&amp;&amp;t.previousSibling){var e,r,n,i,c=t.previousSibling,a=c.getAttribute(&quot;data-cfemail&quot;);if(a){for(e=&quot;&quot;,r=parseInt(a.substr(0,2),16),n=2;a.length-n;n+=2)i=parseInt(a.substr(n,2),16)^r,e+=String.fromCharCode(i);e=document.createTextNode(e),c.parentNode.replaceChild(e,c)}}}catch(u){}}();/* ]]&gt; */&lt;/script&gt;\nFormat settings, CABAC           : Yes\nFormat settings, ReFrames        : 3 frames\nFormat settings, GOP             : M=1, N=54\nCodec ID                         : 7\nDuration                         : 1h 24mn\nBit rate                         : 730 Kbps\nWidth                            : 640 pixels\nHeight                           : 360 pixels\nDisplay aspect ratio             : 16:9\nFrame rate mode                  : Constant\nFrame rate                       : 29.970 fps\nColor space                      : YUV\nChroma subsampling               : 4:2:0\nBit depth                        : 8 bits\nScan type                        : Progressive\nBits/(Pixel*Frame)               : 0.106\nStream size                      : 439 MiB (84%)\n\nAudio\nFormat                           : AAC\nFormat/Info                      : Advanced Audio Codec\nFormat profile                   : LC\nCodec ID                         : 10\nDuration                         : 1h 24mn\nBit rate                         : 129 Kbps\nChannel(s)                       : 2 channels\nChannel positions                : Front: L R\nSampling rate                    : 44.1 KHz\nCompression mode                 : Lossy\nStream size                      : 77.3 MiB (15%)\n","torrent":{"xt":"urn:btih:9fa4f9aff35e3097b9c6edd9786ea7392d615484","amp;dn":"WWE+FRIDAY+NIGHT+SMACKDOWN+04+11+2011+HDTV+BZINGAZ","amp;tr":["udp%3A%2F%2Ftracker.openbittorrent.com%3A80","udp%3A%2F%2Fopen.demonii.com%3A1337","udp%3A%2F%2Ftracker.coppersurfer.tk%3A6969","udp%3A%2F%2Fexodus.desync.com%3A6969"],"infoHash":"9fa4f9aff35e3097b9c6edd9786ea7392d615484","infoHashBuffer":{"type":"Buffer","data":[159,164,249,175,243,94,48,151,185,198,237,217,120,110,167,57,45,97,84,132]},"announce":[],"urlList":[]}}